<svg xmlns="http://www.w3.org/2000/svg" width="131" height="163" fill="none" viewBox="0 0 131 163">
  <path fill="#000" d="M16.198 0h7.707v6.902h7.05V0h7.708v20.902h-7.707v-7h-7.05v7h-7.708V0Zm32.601 6.931h-6.785V0h21.281v6.931h-6.788v13.971h-7.708V6.932ZM66.673 0h8.036l4.944 7.344L84.59 0h8.04v20.902h-7.675v-10.36l-5.303 7.432h-.133l-5.306-7.432v10.36h-7.541V0Zm29.794 0h7.71v13.993h10.839v6.909H96.467V0Z"/>
  <g filter="url(#a)">
    <g filter="url(#b)">
      <path fill="#E34F26" d="M15.951 142.551 4.926 30.461h121.148l-11.037 112.072L65.426 155 15.95 142.551Z"/>
    </g>
    <g filter="url(#c)">
      <path fill="#EF652A" d="m65.5 145.471 40.088-10.074 9.432-95.77H65.5V145.47Z"/>
    </g>
    <g filter="url(#d)">
      <path fill="#EBEBEB" d="M65.5 81.198H45.43l-1.385-14.077H65.5V53.374H27.47l.363 3.688 3.728 37.884H65.5V81.198Zm0 35.704-.067.016-16.89-4.134-1.08-10.964H32.238l2.125 21.585 31.067 7.817.07-.017v-14.303Z"/>
    </g>
    <g filter="url(#e)">
      <path fill="#fff" d="M65.448 81.198v13.748h18.675l-1.76 17.829-16.915 4.138v14.303l31.092-7.811.228-2.323 3.564-36.192.37-3.692H65.448Zm0-27.824V67.12h36.634l.304-3.09.691-6.97.363-3.687H65.448Z"/>
    </g>
  </g>
  <defs>
    <filter id="a" width="121.147" height="128.539" x="4.926" y="30.461" color-interpolation-filters="sRGB" filterUnits="userSpaceOnUse">
      <feFlood flood-opacity="0" result="BackgroundImageFix"/>
      <feBlend in="SourceGraphic" in2="BackgroundImageFix" result="shape"/>
      <feColorMatrix in="SourceAlpha" result="hardAlpha" values="0 0 0 0 0 0 0 0 0 0 0 0 0 0 0 0 0 0 127 0"/>
      <feOffset dy="4"/>
      <feGaussianBlur stdDeviation="2"/>
      <feComposite in2="hardAlpha" k2="-1" k3="1" operator="arithmetic"/>
      <feColorMatrix values="0 0 0 0 0 0 0 0 0 0 0 0 0 0 0 0 0 0 0.25 0"/>
      <feBlend in2="shape" result="effect1_innerShadow_2_72"/>
    </filter>
    <filter id="b" width="129.147" height="132.539" x=".926" y="30.461" color-interpolation-filters="sRGB" filterUnits="userSpaceOnUse">
      <feFlood flood-opacity="0" result="BackgroundImageFix"/>
      <feColorMatrix in="SourceAlpha" result="hardAlpha" values="0 0 0 0 0 0 0 0 0 0 0 0 0 0 0 0 0 0 127 0"/>
      <feOffset dy="4"/>
      <feGaussianBlur stdDeviation="2"/>
      <feComposite in2="hardAlpha" operator="out"/>
      <feColorMatrix values="0 0 0 0 0 0 0 0 0 0 0 0 0 0 0 0 0 0 0.25 0"/>
      <feBlend in2="BackgroundImageFix" result="effect1_dropShadow_2_72"/>
      <feBlend in="SourceGraphic" in2="effect1_dropShadow_2_72" result="shape"/>
    </filter>
    <filter id="c" width="57.52" height="113.845" x="61.5" y="39.626" color-interpolation-filters="sRGB" filterUnits="userSpaceOnUse">
      <feFlood flood-opacity="0" result="BackgroundImageFix"/>
      <feColorMatrix in="SourceAlpha" result="hardAlpha" values="0 0 0 0 0 0 0 0 0 0 0 0 0 0 0 0 0 0 127 0"/>
      <feOffset dy="4"/>
      <feGaussianBlur stdDeviation="2"/>
      <feComposite in2="hardAlpha" operator="out"/>
      <feColorMatrix values="0 0 0 0 0 0 0 0 0 0 0 0 0 0 0 0 0 0 0.25 0"/>
      <feBlend in2="BackgroundImageFix" result="effect1_dropShadow_2_72"/>
      <feBlend in="SourceGraphic" in2="effect1_dropShadow_2_72" result="shape"/>
    </filter>
    <filter id="d" width="46.03" height="85.849" x="23.47" y="53.374" color-interpolation-filters="sRGB" filterUnits="userSpaceOnUse">
      <feFlood flood-opacity="0" result="BackgroundImageFix"/>
      <feColorMatrix in="SourceAlpha" result="hardAlpha" values="0 0 0 0 0 0 0 0 0 0 0 0 0 0 0 0 0 0 127 0"/>
      <feOffset dy="4"/>
      <feGaussianBlur stdDeviation="2"/>
      <feComposite in2="hardAlpha" operator="out"/>
      <feColorMatrix values="0 0 0 0 0 0 0 0 0 0 0 0 0 0 0 0 0 0 0.25 0"/>
      <feBlend in2="BackgroundImageFix" result="effect1_dropShadow_2_72"/>
      <feBlend in="SourceGraphic" in2="effect1_dropShadow_2_72" result="shape"/>
    </filter>
    <filter id="e" width="45.992" height="85.842" x="61.448" y="53.374" color-interpolation-filters="sRGB" filterUnits="userSpaceOnUse">
      <feFlood flood-opacity="0" result="BackgroundImageFix"/>
      <feColorMatrix in="SourceAlpha" result="hardAlpha" values="0 0 0 0 0 0 0 0 0 0 0 0 0 0 0 0 0 0 127 0"/>
      <feOffset dy="4"/>
      <feGaussianBlur stdDeviation="2"/>
      <feComposite in2="hardAlpha" operator="out"/>
      <feColorMatrix values="0 0 0 0 0 0 0 0 0 0 0 0 0 0 0 0 0 0 0.25 0"/>
      <feBlend in2="BackgroundImageFix" result="effect1_dropShadow_2_72"/>
      <feBlend in="SourceGraphic" in2="effect1_dropShadow_2_72" result="shape"/>
    </filter>
  </defs>
</svg>
