<svg xmlns="http://www.w3.org/2000/svg" width="137" height="71" fill="none" viewBox="0 0 137 71">
  <path fill="#FFC100" d="m136.406 30.576-5.877-8.435-2.772 1.667a2.716 2.716 0 0 1-1.351.356 2.72 2.72 0 0 1-1.351-.357c-.45-.251-.912-.482-1.386-.692a2.548 2.548 0 0 1-1.091-.822 2.275 2.275 0 0 1-.462-1.229L121.964 18l-10.839.5.167 3.064c.02.442-.092.881-.324 1.268a2.5 2.5 0 0 1-.993.924c-.479.244-.941.514-1.386.808a2.73 2.73 0 0 1-2.689.218l-2.966-1.41L98 32.346l2.966 1.397a2.51 2.51 0 0 1 1.024.895c.244.38.37.816.362 1.259v1.474a2.22 2.22 0 0 1-.222 1.277 2.444 2.444 0 0 1-.914.98l-2.772 1.679 5.876 8.422 2.772-1.666c.407-.23.875-.352 1.352-.352.476 0 .944.122 1.351.352.448.254.91.485 1.386.692.435.175.809.458 1.081.818.272.36.43.782.457 1.22l.167 3.077 10.824-.5-.166-3.076a2.254 2.254 0 0 1 .357-1.273c.245-.385.601-.7 1.029-.907.478-.244.941-.514 1.386-.807a2.729 2.729 0 0 1 2.689-.218l2.966 1.397 4.934-8.974-2.952-1.397a2.505 2.505 0 0 1-1.024-.895 2.246 2.246 0 0 1-.362-1.26v-1.472a2.22 2.22 0 0 1 .218-1.285c.201-.4.519-.742.918-.985l2.703-1.64Zm-10.104 4.962a7.733 7.733 0 0 1-1.255 4.627c-.903 1.393-2.233 2.508-3.821 3.202a9.534 9.534 0 0 1-5.102.7 9.211 9.211 0 0 1-4.662-2.04c-1.301-1.091-2.224-2.515-2.651-4.091a7.63 7.63 0 0 1 .252-4.764c.591-1.53 1.66-2.864 3.07-3.833a9.349 9.349 0 0 1 4.855-1.609c2.354-.104 4.656.659 6.403 2.123 1.746 1.463 2.793 3.508 2.911 5.685Z"/>
  <path fill="#EC6C0C" d="M69.146 61.348 80 43.786l-6.03-2.965a5.134 5.134 0 0 1-2.056-1.85 4.413 4.413 0 0 1-.678-2.536c.06-1 .06-2.002 0-3.002-.078-.88.12-1.76.57-2.544a5.007 5.007 0 0 1 1.983-1.896l5.87-3.181L68.08 8.61l-5.89 3.181a5.804 5.804 0 0 1-2.793.708 5.804 5.804 0 0 1-2.794-.708 29.015 29.015 0 0 0-2.935-1.456 5.194 5.194 0 0 1-2.197-1.714 4.415 4.415 0 0 1-.858-2.492L50.493 0 28.04.377l.14 6.166a4.39 4.39 0 0 1-.768 2.506 5.14 5.14 0 0 1-2.125 1.772l-1.428.737c-.482.251-.944.521-1.407.79a5.72 5.72 0 0 1-2.738.851 5.829 5.829 0 0 1-2.83-.563l-6.03-2.984L0 27.214l6.03 2.983a5.12 5.12 0 0 1 2.054 1.84c.482.771.718 1.646.68 2.528-.06 1-.06 2.002 0 3.002a4.34 4.34 0 0 1-.574 2.543 5.025 5.025 0 0 1-1.979 1.897l-5.89 3.181L11.92 62.39l5.89-3.181a5.804 5.804 0 0 1 2.793-.708c.987 0 1.954.245 2.794.708a32.852 32.852 0 0 0 2.915 1.438 5.194 5.194 0 0 1 2.196 1.714c.54.743.837 1.606.859 2.492l.14 6.147 22.453-.377-.14-6.166c-.01-.88.256-1.746.767-2.499a5.108 5.108 0 0 1 2.127-1.76l1.447-.738 1.387-.809a5.75 5.75 0 0 1 2.75-.844 5.848 5.848 0 0 1 2.838.575l6.01 2.966ZM49.467 49.556c-3.116 1.678-6.719 2.49-10.352 2.337-3.634-.153-7.134-1.267-10.06-3.2-2.926-1.932-5.145-4.597-6.377-7.658a14.8 14.8 0 0 1-.544-9.535c.877-3.157 2.78-6.01 5.47-8.2 2.691-2.189 6.047-3.615 9.644-4.1 3.597-.483 7.273-.002 10.565 1.383 3.29 1.384 6.05 3.61 7.926 6.397 2.511 3.738 3.261 8.215 2.086 12.448-1.176 4.233-4.182 7.875-8.358 10.128Z"/>
</svg>
