<svg xmlns="http://www.w3.org/2000/svg" width="53" height="52" fill="none" viewBox="0 0 53 52">
  <path fill="#FFC100" d="M29.517 22.102c-1.201 0-2.353-.378-3.203-1.05-.849-.672-1.326-1.583-1.326-2.534 0-.95.477-1.862 1.326-2.534.85-.673 2.002-1.05 3.203-1.05 3.802-.003 7.447-1.2 10.135-3.328 2.689-2.128 4.201-5.013 4.206-8.022 0-.95.477-1.862 1.326-2.534C46.034.378 47.185 0 48.386 0s2.353.378 3.202 1.05c.85.672 1.327 1.584 1.327 2.534-.007 4.91-2.475 9.617-6.861 13.088-4.387 3.472-10.334 5.425-16.537 5.43Z"/>
  <path fill="#E64A1A" d="M4.529 51.97c-1.201 0-2.353-.377-3.202-1.05C.477 50.248 0 49.337 0 48.386c.007-4.91 2.475-9.617 6.861-13.088 4.387-3.472 10.334-5.425 16.537-5.43 1.201 0 2.353.378 3.203 1.05.849.672 1.326 1.584 1.326 2.534 0 .95-.477 1.862-1.326 2.534-.85.673-2.002 1.05-3.203 1.05-3.802.004-7.447 1.2-10.135 3.328-2.689 2.128-4.201 5.013-4.206 8.022 0 .95-.477 1.862-1.326 2.534-.85.673-2 1.05-3.202 1.05Z"/>
  <path fill="url(#a)" d="M29.517 51.97c-1.195-.008-2.337-.389-3.178-1.06-.842-.671-1.314-1.578-1.314-2.524 0-.945.472-1.853 1.314-2.524.84-.671 1.983-1.052 3.178-1.06 1.883 0 3.748-.294 5.488-.864 1.74-.57 3.32-1.407 4.652-2.46 1.332-1.054 2.388-2.306 3.109-3.682a9.338 9.338 0 0 0 1.091-4.344c0-1.49-.37-2.966-1.091-4.343-.721-1.377-1.777-2.629-3.109-3.683-1.332-1.053-2.912-1.89-4.652-2.46a17.672 17.672 0 0 0-5.488-.864c-1.201 0-2.353-.378-3.203-1.05-.849-.672-1.326-1.583-1.326-2.534 0-.95.477-1.862 1.326-2.534.85-.673 2.002-1.05 3.203-1.05a28.84 28.84 0 0 1 8.98 1.39c2.849.927 5.438 2.29 7.62 4.01 2.181 1.72 3.913 3.765 5.094 6.016C52.39 28.6 53 31.014 53 33.452c0 2.438-.608 4.851-1.79 7.102-1.18 2.251-2.912 4.296-5.093 6.016-2.182 1.72-4.771 3.084-7.62 4.01a28.855 28.855 0 0 1-8.98 1.39Z"/>
  <path fill="url(#b)" d="M45.734 16.92c2.272-1.725 4.08-3.796 5.313-6.087 1.234-2.292 1.87-4.758 1.868-7.249 0-.95-.477-1.862-1.327-2.534-.849-.672-2-1.05-3.202-1.05-1.201 0-2.353.378-3.202 1.05-.85.672-1.326 1.584-1.326 2.534-.002 1.928-.623 3.824-1.807 5.51-1.183 1.685-2.89 3.103-4.958 4.122 3.18.736 6.125 1.998 8.641 3.703Z"/>
  <path fill="url(#c)" d="M23.399 37.036c-6.206 0-12.157-1.95-16.545-5.424C2.466 28.14 0 23.43 0 18.518S2.466 8.897 6.854 5.424C11.242 1.95 17.194 0 23.399 0c1.2 0 2.352.378 3.202 1.05.85.672 1.326 1.584 1.326 2.534 0 .95-.477 1.862-1.326 2.535-.85.672-2.001 1.05-3.202 1.05-1.884 0-3.748.293-5.488.863-1.74.57-3.321 1.407-4.653 2.46-1.331 1.054-2.388 2.306-3.108 3.683a9.335 9.335 0 0 0-1.092 4.343c0 1.49.37 2.966 1.092 4.343.72 1.377 1.777 2.629 3.108 3.683 1.332 1.053 2.913 1.89 4.653 2.46 1.74.57 3.604.864 5.488.864 1.2 0 2.352.378 3.202 1.05.85.672 1.326 1.584 1.326 2.534 0 .95-.477 1.862-1.326 2.534-.85.673-2.001 1.05-3.202 1.05Z"/>
  <path fill="#E64A1A" d="M7.18 35.05c-2.27 1.725-4.078 3.796-5.312 6.088C.634 43.428-.002 45.895 0 48.386c-.005.473.109.942.334 1.38.225.439.558.838.98 1.174.42.336.921.602 1.473.784A5.576 5.576 0 0 0 4.53 52c.598 0 1.19-.094 1.742-.276a4.735 4.735 0 0 0 1.473-.784 3.66 3.66 0 0 0 .98-1.173c.225-.439.338-.908.333-1.381.002-1.928.623-3.824 1.807-5.51 1.183-1.685 2.89-3.103 4.958-4.122-3.18-.736-6.125-1.998-8.641-3.703Z"/>
  <defs>
    <linearGradient id="a" x1="38.994" x2="38.994" y1="51.97" y2="14.934" gradientUnits="userSpaceOnUse">
      <stop stop-color="#E9592D"/>
      <stop offset="1" stop-color="#FFC100"/>
    </linearGradient>
    <linearGradient id="b" x1="41.381" x2="52.621" y1="15.177" y2="1.713" gradientUnits="userSpaceOnUse">
      <stop offset=".005" stop-color="#F39519"/>
      <stop offset=".146" stop-color="#F39519"/>
      <stop offset="1" stop-color="#F39519"/>
    </linearGradient>
    <linearGradient id="c" x1="13.964" x2="13.964" y1="37.036" y2="0" gradientUnits="userSpaceOnUse">
      <stop stop-color="#E9592D"/>
      <stop offset="1" stop-color="#FFC100"/>
    </linearGradient>
  </defs>
</svg>
