<svg xmlns="http://www.w3.org/2000/svg" width="500" height="460" fill="none" viewBox="0 0 500 460">
  <path fill="#FFC100" d="M422.41 140c2.27-23.46 7.7-45.67-1.9-68.23C402.89 30.37 349.74 8.39 308.44 28 287.32 38 269.26 52.63 246 58 183.22 72.49 86.32-4.71 52.15 85.17c-11.73 30.84-7 71.48 14.21 97.26 6.81 8.27 15.13 15.47 20.17 24.93 13.79 25.89-5.73 54.34-14.53 78.49-20.9 57.07 57.9 88.65 100.67 94.47C243.37 390 301.69 309 372 342c49 23 92-33 83-89-5.89-36.66-35.71-71.75-32.92-109.11.1-1.29.21-2.58.33-3.89Z"/>
  <path fill="#fff" d="M422.41 140c2.27-23.46 7.7-45.67-1.9-68.23C402.89 30.37 349.74 8.39 308.44 28 287.32 38 269.26 52.63 246 58 183.22 72.49 86.32-4.71 52.15 85.17c-11.73 30.84-7 71.48 14.21 97.26 6.81 8.27 15.13 15.47 20.17 24.93 13.79 25.89-5.73 54.34-14.53 78.49-20.9 57.07 57.9 88.65 100.67 94.47C243.37 390 301.69 309 372 342c49 23 92-33 83-89-5.89-36.66-35.71-71.75-32.92-109.11.1-1.29.21-2.58.33-3.89Z" opacity=".7"/>
  <path fill="#fff" stroke="#2E353A" stroke-linecap="round" stroke-linejoin="round" d="M85.77 155.26c19.07 0 34.53-15.46 34.53-34.53S104.84 86.2 85.77 86.2s-34.53 15.46-34.53 34.53 15.46 34.53 34.53 34.53Z"/>
  <path fill="#fff" stroke="#2E353A" stroke-linecap="round" stroke-linejoin="round" d="M83.2 151.83c19.07 0 34.53-15.46 34.53-34.53S102.27 82.77 83.2 82.77 48.67 98.23 48.67 117.3s15.46 34.53 34.53 34.53Z"/>
  <path fill="#2E353A" stroke="#2E353A" stroke-linecap="round" stroke-linejoin="round" d="M83.2 148.4c17.176 0 31.1-13.924 31.1-31.1 0-17.176-13.924-31.1-31.1-31.1-17.176 0-31.1 13.924-31.1 31.1 0 17.176 13.924 31.1 31.1 31.1Z"/>
  <path fill="#FFC100" d="M79.55 93.92s-3.43-8.58-9.43-14.58-30.46-9.87-30.46-9.87a89.673 89.673 0 0 1 10.73 12.44c5.57 7.72 24 25.31 24 25.31s-9-7.72-17.16-8.58c-8.16-.86-28.74 3.43-30 3.43-1.26 0 7.72 3.43 14.16 6.43 6.44 3 31.31 5.58 31.31 5.58s-10.72 3-18 5.58c-7.28 2.58-14.18 21.44-14.18 21.44s9.44-8.58 17.59-10.72c8.15-2.14 19.73-6 19.73-6s-7.29 8.15-9 13.73-.43 18.44-.43 18.44 3.86-12 8.58-16.73c4.72-4.73 9.85-12.82 9.85-12.82a117.984 117.984 0 0 1 6.44 12c3.43 7.29 5.57 18 5.57 18s5.58-12 5.15-18c-.43-6-6.86-16.73-6.86-16.73s4.29-3 10.72-.43c6.43 2.57 17.59 13.3 17.59 13.3s-2.58-14.16-6.87-19.73-22.73-7.3-22.73-7.3 10.3-6 16.73-7.29 15 1.72 15 1.72-9.86-13.73-17.58-14.59c-7.72-.86-19.3 11.12-19.3 11.12l3.44-17.16c.85-4.29-.86-15-.86-15s-4.72 2.57-10.3 10.72a21.359 21.359 0 0 0-3.43 16.29Z"/>
  <path fill="#EC6C0C" d="M79.55 93.92s-3.43-8.58-9.43-14.58-30.46-9.87-30.46-9.87a89.673 89.673 0 0 1 10.73 12.44c5.57 7.72 24 25.31 24 25.31s-9-7.72-17.16-8.58c-8.16-.86-28.74 3.43-30 3.43-1.26 0 7.72 3.43 14.16 6.43 6.44 3 31.31 5.58 31.31 5.58s-10.72 3-18 5.58c-7.28 2.58-14.18 21.44-14.18 21.44s9.44-8.58 17.59-10.72c8.15-2.14 19.73-6 19.73-6s-7.29 8.15-9 13.73-.43 18.44-.43 18.44 3.86-12 8.58-16.73c4.72-4.73 9.85-12.82 9.85-12.82a117.984 117.984 0 0 1 6.44 12c3.43 7.29 5.57 18 5.57 18s5.58-12 5.15-18c-.43-6-6.86-16.73-6.86-16.73s4.29-3 10.72-.43c6.43 2.57 17.59 13.3 17.59 13.3s-2.58-14.16-6.87-19.73-22.73-7.3-22.73-7.3 10.3-6 16.73-7.29 15 1.72 15 1.72-9.86-13.73-17.58-14.59c-7.72-.86-19.3 11.12-19.3 11.12l3.44-17.16c.85-4.29-.86-15-.86-15s-4.72 2.57-10.3 10.72a21.359 21.359 0 0 0-3.43 16.29Z" opacity=".5"/>
  <path stroke="#2E353A" stroke-linecap="round" stroke-linejoin="round" stroke-width=".5" d="M88 80.86c.3-1.23.63-2.46 1-3.67m-29.65 3.67c4 2.93 9 7 11.62 10.49 4.72 6.43 14.16 20.16 14.16 20.16-.27-9.222.46-18.446 2.18-27.51m-33.92-7.24s1.25.8 3.12 2.09m28.62 32.66s16.3-16.3 23.16-17.59c6.86-1.29 12.87 3.86 12.87 3.86M56 125.14c-4 2.52-4.33 4-4.33 4m69.06-2.62s-2.57-6.44-11.58-9.44c-9.01-3-23.15-3.43-23.15-3.43s-19.85 6.5-27.11 9.89m18.43-12.34c4.8 1.4 8.67 2.45 8.67 2.45m-38.88-10.07c4.66.28 10.66.92 14 2.35 2.72 1.17 8.08 2.86 13.14 4.37m-33.73-6.94s1.57 0 3.88.09"/>
  <path stroke="#2E353A" stroke-linecap="round" stroke-linejoin="round" stroke-width=".5" d="M85.13 116.22s-12 18-12.87 22.31a43.693 43.693 0 0 0-.86 7.72m19.07-24.36c2.31 3 5.08 7 6.24 10.2a70.388 70.388 0 0 1 3 12m-12.87-26.58s1 1.06 2.29 2.69"/>
  <path fill="#EC6C0C" d="M74.1 97.62s-2.21-9-.84-17.35c1.37-8.35 19-25.78 19-25.78a90.195 90.195 0 0 0-1.45 16.36c0 9.52-4.75 34.56-4.75 34.56s2.81-11.52 8.93-17c6.12-5.48 25.35-14 26.39-14.73 1.04-.73-4.27 7.29-7.74 13.49-3.47 6.2-22.2 22.83-22.2 22.83s10.46-3.82 17.88-6c7.42-2.18 24 9.16 24 9.16s-12.67-1.46-20.54 1.55c-7.87 3.01-19.53 6.63-19.53 6.63s10.68 2.37 15.32 5.9c4.64 3.53 11.12 14.76 11.12 14.76s-10.14-7.51-16.73-8.59-15.52-4.69-15.52-4.69c.339 4.53.933 9.037 1.78 13.5 1.47 7.93 6 17.89 6 17.89s-11.53-6.5-14.69-11.63c-3.16-5.13-4.18-17.59-4.18-17.59s-5.24.06-9 5.9c-3.76 5.84-6.53 21.06-6.53 21.06s-6.16-13-5.93-20c.23-7 14.21-19.18 14.21-19.18s-11.86 1.13-17.84 3.83-11.2 10.15-11.2 10.15 0-16.9 5.78-22.1c5.78-5.2 22.19-2.2 22.19-2.2l-12.8-11.93c-3.2-3-8.06-12.7-8.06-12.7s5.34-.66 14.62 2.71A21.31 21.31 0 0 1 74.1 97.62Z"/>
  <path stroke="#2E353A" stroke-linecap="round" stroke-linejoin="round" stroke-width=".5" d="M59.62 91.94c-1-.83-1.94-1.63-2.94-2.41m26.21-14.3c-1.55 4.72-3.28 10.93-3.32 15.29-.08 8 .26 24.63.26 24.63A127.116 127.116 0 0 0 62 94.09m23.35-25.67s-.56 1.38-1.32 3.51m-4.2 43.22s-22.75-3.73-29.07-.77-8.2 10.62-8.2 10.62m68.89-15.77c4.69-.26 5.81.69 5.81.69m-57.59 38.19s-1.66-6.73 3.9-14.42c5.56-7.69 16.82-16.29 16.82-16.29s19.91-6.31 27.78-7.78"/>
  <path stroke="#2E353A" stroke-linecap="round" stroke-linejoin="round" stroke-width=".5" d="M86 110.35c-3.08 3.93-5.6 7.05-5.6 7.05m25.69-30.86c-3.62 3-8.12 7-10 10.07-1.53 2.54-4.9 7-8.13 11.21m23.35-25.31s-1.27.92-3.1 2.34M82.58 119s20.27 7.62 23.46 10.61a43.384 43.384 0 0 1 5.2 5.77m-29.69-8.68c-.14 3.78-.07 8.63.88 11.93A69.728 69.728 0 0 0 87 150.14M81.94 121s-.16 1.42-.28 3.52"/>
  <path fill="#fff" stroke="#2E353A" stroke-linecap="round" stroke-linejoin="round" d="M140.83 143.43H367.5a10.67 10.67 0 0 1 10.67 10.67v147a11.678 11.678 0 0 1-3.418 8.252 11.676 11.676 0 0 1-8.252 3.418H141.83a11.681 11.681 0 0 1-8.252-3.418 11.676 11.676 0 0 1-3.418-8.252v-147a10.67 10.67 0 0 1 10.67-10.67Z"/>
  <path fill="#2E353A" d="M223.79 160.1h-13.96v9.17h13.96v-9.17Zm-45.23 56.57H165.6v12.86h12.96v-12.86Zm57.26-45.2h-13.06v12.86h13.06v-12.86Zm-28.2-11.37h-13.96v9.17h13.96v-9.17Zm43.46 11.37h-13.06v12.86h13.06v-12.86Zm-11.13-11.37h-13.96v9.17h13.96v-9.17Zm-69.22 41.5h-24.56v12.86h24.56V201.6Zm34.56-30.13h-13.06v12.86h13.06v-12.86Zm-41.89 45.2h-17.23v12.86h17.23v-12.86Zm92.72-56.57h-13.96v9.17h13.96v-9.17Zm-81.36 11.37H161.7v12.86h13.06v-12.86Zm.53-11.37h-13.96v9.17h13.96v-9.17Zm16.17 0H177.5v9.17h13.96v-9.17Zm-1.44 11.37h-13.06v12.86h13.06v-12.86Zm30.53 0h-13.06v12.86h13.06v-12.86Zm100.24-11.37h-13.96v9.17h13.96v-9.17Zm16.16 0h-13.96v9.17h13.96v-9.17Zm-9.54 11.37h-13.06v12.86h13.06v-12.86Zm15.27 0h-13.06v12.86h13.06v-12.86Zm24.15 45.2H347.6v12.86h19.23v-12.86Zm-13.71-56.57h-13.96v9.17h13.96v-9.17ZM159.5 171.47h-13.33v12.86h13.33v-12.86Zm112.79-11.37h-13.96v9.17h13.96v-9.17Zm16.16 0h-13.96v9.17h13.96v-9.17Zm-6.83 11.37h-13.06v12.86h13.06v-12.86Zm30.53 0h-13.06v12.86h13.06v-12.86Zm-45.8 0h-13.06v12.86h13.06v-12.86Zm30.53 0h-13.06v12.86h13.06v-12.86Zm7.74-11.37h-13.96v9.17h13.96v-9.17Zm-19.89 56.57h-12.96v12.86h12.96v-12.86Zm68-15.07h-12.96v12.86h12.96V201.6Zm-15.17 0H324.6v12.86h12.96V201.6Zm7.83 15.07h-12.96v12.86h12.96v-12.86Zm-15.16 0h-12.96v12.86h12.96v-12.86Zm-30.34 0h-12.96v12.86h12.96v-12.86Zm15.17 0H302.1v12.86h12.96v-12.86Zm7.33-15.07h-12.96v12.86h12.96V201.6Zm-15.16 0h-12.96v12.86h12.96V201.6Zm59.61-41.5h-11.51v9.17h11.51v-9.17Zm-207.71 0h-12.96v9.17h12.96v-9.17Zm207.71 71.63H146.17v13.37h220.67v-13.37Zm-.01-60.26h-21.95v12.86h21.95v-12.86Zm0 30.13h-11.9v12.86h11.9V201.6Zm-15.56-2.3h-2.21v-12.76H336.1v12.76h-2.2v-12.76h-12.96v12.76h-2.21v-12.76h-12.96v12.76h-2.21v-12.76H290.6v12.76h-2.2v-12.76h-12.96v12.76h-2.21v-12.76h-12.96v12.76h-2.21v-12.76H245.1v12.76h-2.2v-12.76h-12.96v12.76h-2.21v-12.76h-12.96v12.76h-2.21v-12.76H199.6v12.76h-2.2v-12.76h-12.96v12.76h-2.21v-12.76h-12.96v12.76h-2.21v-12.76h-20.89v12.86h220.66v-12.86h-15.56v12.76Zm-104.71 2.3H233.6v12.86h12.96V201.6Zm45.5 0H279.1v12.86h12.96V201.6Zm-75.83 0h-12.96v12.86h12.96V201.6Zm7.83 15.07H211.1v12.86h12.96v-12.86Zm7.33-15.07h-12.96v12.86h12.96V201.6Zm-30.33 0H188.1v12.86h12.96V201.6Zm-7.33 15.07h-12.96v12.86h12.96v-12.86Zm15.16 0h-12.96v12.86h12.96v-12.86Zm52.84-15.07h-12.96v12.86h12.96V201.6Zm7.83 15.07H256.6v12.86h12.96v-12.86Zm7.33-15.07h-12.96v12.86h12.96V201.6Zm-37.66 15.07h-12.96v12.86h12.96v-12.86Zm15.16 0h-12.96v12.86h12.96v-12.86Zm-68.5-15.07h-12.96v12.86h12.96V201.6Z"/>
  <path fill="#2E353A" stroke="#2E353A" stroke-linecap="round" stroke-linejoin="round" d="M392.33 51.43H114.67a8.88 8.88 0 0 0-8.57 11.18l20.3 75.58a8.878 8.878 0 0 0 8.57 6.58h28.34V150H345v-5.2h27a8.88 8.88 0 0 0 8.57-6.58l20.3-75.58a8.873 8.873 0 0 0-1.505-7.711 8.884 8.884 0 0 0-7.035-3.499v0Z"/>
  <path fill="#FFC100" stroke="#2E353A" stroke-linecap="round" stroke-linejoin="round" d="M360.93 138.1H146.07l-21.49-77.33h257.83l-21.48 77.33Z"/>
  <path fill="#2E353A" d="M160.33 104.16v1h-3.79v-1h3.79Zm4.72 0v1h-3.8v-1h3.8Zm4.72 0v1H166v-1h3.77Zm4.71 0v1h-3.79v-1h3.79Zm4.72 0v1h-3.8v-1h3.8Zm4.72 0v1h-3.8v-1h3.8Zm4.71 0v1h-3.79v-1h3.79Zm4.67 5.27-4.18-11.14h1l4.18 11.14h-1Zm-36.79-21.49v1h-3.79v-1h3.79Zm4.72 0v1h-3.79v-1h3.79Zm4.77 0v1h-3.8v-1h3.8Zm4.67 0v1h-3.8v-1h3.8Zm4.71 0v1h-3.79v-1h3.79Zm7.98 0v1h-3.8v-1h3.8Zm4.71 0v1h-3.79v-1h3.79Zm4.72 0v1H189v-1h3.79Zm4.72 0v1h-3.8v-1h3.8Zm4.71 0v1h-3.79v-1h3.79Zm4.72 0v1h-3.79v-1h3.79Zm4.72 0v1h-3.8v-1h3.8Zm7.97 0v1h-3.79v-1h3.79Zm4.72 0v1h-3.8v-1h3.8Zm4.72 0v1h-3.8v-1h3.8Zm7.93 0v1h-3.79v-1H237Zm4.76 0v1H238v-1h3.76Zm4.72 0v1h-3.8v-1h3.8Zm17.74 0v1h-3.79v-1h3.79Zm4.72 0v1h-3.8v-1h3.8Zm4.72 0v1h-3.8v-1h3.8Zm4.71 0v1h-3.79v-1h3.79Zm4.72 0v1h-3.8v-1h3.8Zm7.97 0v1h-3.79v-1h3.79Zm4.72 0v1H292v-1h3.78Zm4.72 0v1h-3.8v-1h3.8Zm7.97 0v1h-3.79v-1h3.79Zm7.98 0v1h-3.8v-1h3.8Z"/>
  <path fill="#fff" stroke="#2E353A" stroke-linecap="round" stroke-linejoin="round" d="m379.69 252.29-10.7 41.28 10.12 2.97.58-44.25Z"/>
  <path fill="#fff" stroke="#2E353A" stroke-miterlimit="10" d="M384.49 208.66a8.549 8.549 0 0 1-1.23-6.28c.55-4.07 5.46-5 5.46-5s1.07-.81 5 .68c3.93 1.49 34.32 5.61 53.74 8.24s25.71.93 25.44 7.6c-.27 6.67-17.31 66.53-17.57 68.41-.26 1.88-70.84-73.65-70.84-73.65Z"/>
  <path fill="#fff" stroke="#2E353A" stroke-linecap="round" stroke-linejoin="round" d="m466.174 219.736-81.692-11.074-13.201 97.379 81.693 11.074 13.2-97.379Z"/>
  <path stroke="#2E353A" stroke-linecap="round" stroke-linejoin="round" stroke-width=".5" d="m450.99 239.16 4.75.65m-34.5-4.68 25.99 3.53m-57.49-7.8 27.74 3.76m26.07 12.35 11.02 1.5m-66-8.95 43.71 5.92m-21.53 5.9 42.65 5.78m-66.01-8.95 18.97 2.58m18.56 11.33 27.3 3.7m-50.47-6.85 20.04 2.72m-35.57-4.82 12.08 1.64m42.98 14.64 9.77 1.32m-66-8.94 49.66 6.73m-12.45 7.12 27.62 3.75m-66.01-8.95 33.69 4.57m13.23 10.61 17.91 2.42m-54.23-7.35 31.94 4.33m-43.71-5.92 8.01 1.08"/>
  <path stroke="#2E353A" stroke-linecap="round" stroke-linejoin="round" d="M466.18 219.74s1.4-13.58 6.4-8.12"/>
  <path fill="#fff" stroke="#2E353A" stroke-linecap="round" stroke-linejoin="round" d="m438.48 324.35-.09 8.63-5.03-7.1-20.19-67.91 5.12-1.53 20.19 67.91Z"/>
  <path fill="#FFC100" stroke="#2E353A" stroke-linecap="round" stroke-linejoin="round" stroke-width=".5" d="m416.286 259.342-2.794.815 19.838 68.016 2.794-.815-19.838-68.016Z"/>
  <path stroke="#2E353A" stroke-linecap="round" stroke-linejoin="round" d="m438.48 324.37-5.11 1.52 5.02 7.09.09-8.61Z"/>
  <path fill="#2E353A" stroke="#2E353A" stroke-linecap="round" stroke-linejoin="round" d="m435.88 329.43 2.51 3.55.05-4.31-2.56.76Z"/>
  <path fill="#fff" stroke="#2E353A" stroke-linecap="round" stroke-linejoin="round" d="M413.47 249.6a2.681 2.681 0 0 0-1.8 3.32l1.5 5.05 5.12-1.52-1.5-5.05a2.681 2.681 0 0 0-3.32-1.8v0Z"/>
  <path fill="#2E353A" stroke="#2E353A" stroke-linecap="round" stroke-linejoin="round" d="M413.47 249.6a2.681 2.681 0 0 0-1.8 3.32l.72 2.41 5.11-1.52-.71-2.41a2.681 2.681 0 0 0-3.32-1.8v0Z"/>
  <path stroke="#fff" stroke-linecap="round" stroke-linejoin="round" d="M161.65 209.49c-.64.9-1.27 1.84-1.9 2.83m12.36-14.87a72.214 72.214 0 0 0-7.71 8.37m-3.64-3.06a106.583 106.583 0 0 0-7.41 12m77.94 9.99c-.63.9-1.27 1.84-1.9 2.82m12.36-14.86a72.724 72.724 0 0 0-7.7 8.37m-3.64-3.08a108.162 108.162 0 0 0-7.41 12.06M331.11 200c-.91-.62-1.87-1.24-2.86-1.86m15.06 12.14a73.473 73.473 0 0 0-8.49-7.57m3.01-3.71a108.561 108.561 0 0 0-12.16-7.23"/>
  <path stroke="#2E353A" stroke-linecap="round" stroke-linejoin="round" d="M228.25 262c-.52 3.76-1.3 9-2.08 12.11m2.66-16.68s-.08.71-.23 1.86m2.9 8.81a84.528 84.528 0 0 1-4 10.67m54-5.34s.67 8.67 5.33 13.34m-6-4.67s2 6 6 8.67"/>
  <path fill="#FFC100" d="M145 328.44s4.44-3.57 4.44-34.26c0-30.69 5.11-53.11 11.41-62.94 6.3-9.83 12.19-13.77 14.95-13.77s.78 3.54-3.15 8.65c-3.93 5.11-7.47 7.87-9.05 14.17-1.58 6.3-1.57 14.16.4 13.37 1.97-.79 5.11-16.52 7.86-22.42 2.75-5.9 9.45-13.38 13.38-16.92 3.93-3.54 12.59-14.16 16.52-11.41 3.93 2.75 1.58 6.69-.78 8.26-2.36 1.57-11.81 11-16.13 16.92-4.32 5.92-7.08 20.85-4.72 21.24 2.36.39 9.44-21.63 13.37-26.35 3.93-4.72 19.67-17.71 23.21-18.1 3.54-.39 3.94 5.11.79 7.87s-13.77 14.55-17.31 21.63c-3.54 7.08-5.12 20.07-2 16.92 3.12-3.15 8.26-16.13 12.59-20.46 4.33-4.33 17.31-18.09 20.46-16.52 3.15 1.57 2.36 5.51-.39 8.26s-13.38 17.71-16.13 25.57c-2.75 7.86-5.91 29.9-4.33 26.76 1.58-3.14 6.69-19.28 9.44-26 2.75-6.72 8.26-9.83 9.05-6.69.79 3.14-.79 4.72-2.76 11.81-1.97 7.09-2 26-7.86 36.58-5.86 10.58-29.38 33.22-32.52 41.08a107.143 107.143 0 0 1-8.12 15.6m185.93-16.19s-4.55-6.23-4.55-36.92-5.12-53.11-11.41-62.94c-6.29-9.83-12.2-13.77-14.95-13.77s-.79 3.54 3.15 8.65 7.47 7.87 9 14.17c1.53 6.3 1.58 14.16-.39 13.37-1.97-.79-5.11-16.52-7.87-22.42-2.76-5.9-9.44-13.38-13.37-16.92-3.93-3.54-12.59-14.16-16.53-11.41-3.94 2.75-1.57 6.69.79 8.26 2.36 1.57 11.8 11 16.13 16.92 4.33 5.92 7.08 20.85 4.72 21.24-2.36.39-9.41-21.63-13.34-26.33-3.93-4.7-19.68-17.71-23.22-18.1-3.54-.39-3.93 5.11-.78 7.87 3.15 2.76 13.77 14.55 17.31 21.63 3.54 7.08 5.11 20.07 2 16.92-3.11-3.15-8.26-16.13-12.58-20.46-4.32-4.33-17.31-18.09-20.46-16.52-3.15 1.57-2.36 5.51.39 8.26s13.38 17.71 16.13 25.57c2.75 7.86 5.9 29.9 4.33 26.76-1.57-3.14-6.69-19.28-9.44-26-2.75-6.72-8.26-9.83-9.05-6.69-.79 3.14.79 4.72 2.75 11.81 1.96 7.09 2 26 7.87 36.58 5.87 10.58 28.72 31.23 31.87 39.1 3.15 7.87 8.85 20.27 8.85 20.27" style="mix-blend-mode:multiply"/>
  <path fill="#fff" d="M143.5 336s5.9-19.27 5.9-50 5.11-53.11 11.41-62.94c6.3-9.83 12.19-13.77 14.95-13.77s.78 3.54-3.15 8.65c-3.93 5.11-7.47 7.87-9.05 14.16-1.58 6.29-1.57 14.17.4 13.38 1.97-.79 5.11-16.52 7.86-22.42 2.75-5.9 9.45-13.38 13.38-16.92 3.93-3.54 12.59-14.16 16.52-11.41 3.93 2.75 1.58 6.69-.78 8.26-2.36 1.57-11.81 11-16.13 16.92-4.32 5.92-7.08 20.85-4.72 21.24 2.36.39 9.44-21.63 13.37-26.36 3.93-4.73 19.67-17.7 23.21-18.09 3.54-.39 3.94 5.11.79 7.87s-13.77 14.55-17.31 21.63c-3.54 7.08-5.12 20.07-2 16.92 3.12-3.15 8.26-16.13 12.59-20.46 4.33-4.33 17.31-18.09 20.46-16.52 3.15 1.57 2.36 5.51-.39 8.26s-13.38 17.7-16.13 25.57c-2.75 7.87-5.91 29.9-4.33 26.75 1.58-3.15 6.69-19.27 9.44-26 2.75-6.73 8.26-9.84 9.05-6.69.79 3.15-.79 4.72-2.76 11.8-1.97 7.08-2 26-7.86 36.59-5.86 10.59-28.72 39.34-31.87 47.21-3.15 7.87-10.23 25.18-10.23 25.18"/>
  <path stroke="#2E353A" stroke-linecap="round" stroke-linejoin="round" d="M143.5 336s5.9-19.27 5.9-50 5.11-53.11 11.41-62.94c6.3-9.83 12.19-13.77 14.95-13.77s.78 3.54-3.15 8.65c-3.93 5.11-7.47 7.87-9.05 14.16-1.58 6.29-1.57 14.17.4 13.38 1.97-.79 5.11-16.52 7.86-22.42 2.75-5.9 9.45-13.38 13.38-16.92 3.93-3.54 12.59-14.16 16.52-11.41 3.93 2.75 1.58 6.69-.78 8.26-2.36 1.57-11.81 11-16.13 16.92-4.32 5.92-7.08 20.85-4.72 21.24 2.36.39 9.44-21.63 13.37-26.36 3.93-4.73 19.67-17.7 23.21-18.09 3.54-.39 3.94 5.11.79 7.87s-13.77 14.55-17.31 21.63c-3.54 7.08-5.12 20.07-2 16.92 3.12-3.15 8.26-16.13 12.59-20.46 4.33-4.33 17.31-18.09 20.46-16.52 3.15 1.57 2.36 5.51-.39 8.26s-13.38 17.7-16.13 25.57c-2.75 7.87-5.91 29.9-4.33 26.75 1.58-3.15 6.69-19.27 9.44-26 2.75-6.73 8.26-9.84 9.05-6.69.79 3.15-.79 4.72-2.76 11.8-1.97 7.08-2 26-7.86 36.59-5.86 10.59-28.72 39.34-31.87 47.21-3.15 7.87-10.23 25.18-10.23 25.18"/>
  <path fill="#fff" d="M364.89 336s-5.9-19.27-5.9-50-5.12-53.11-11.41-62.94c-6.29-9.83-12.2-13.77-14.95-13.77s-.79 3.54 3.15 8.65 7.47 7.87 9 14.16c1.53 6.29 1.58 14.17-.39 13.38-1.97-.79-5.11-16.52-7.87-22.42-2.76-5.9-9.44-13.38-13.37-16.92-3.93-3.54-12.59-14.16-16.53-11.41-3.94 2.75-1.57 6.69.79 8.26 2.36 1.57 11.8 11 16.13 16.92 4.33 5.92 7.08 20.85 4.72 21.24-2.36.39-9.44-21.63-13.37-26.36-3.93-4.73-19.68-17.7-23.22-18.09-3.54-.39-3.93 5.11-.78 7.87 3.15 2.76 13.77 14.55 17.31 21.63 3.54 7.08 5.11 20.07 2 16.92-3.11-3.15-8.26-16.13-12.58-20.46-4.32-4.33-17.31-18.09-20.46-16.52-3.15 1.57-2.36 5.51.39 8.26s13.38 17.7 16.13 25.57c2.75 7.87 5.9 29.9 4.33 26.75-1.57-3.15-6.69-19.27-9.44-26-2.75-6.73-8.26-9.84-9.05-6.69-.79 3.15.79 4.72 2.75 11.8 1.96 7.08 2 26 7.87 36.59 5.87 10.59 28.72 39.34 31.87 47.21 3.15 7.87 10.23 25.18 10.23 25.18"/>
  <path stroke="#2E353A" stroke-linecap="round" stroke-linejoin="round" d="M364.89 336s-5.9-19.27-5.9-50-5.12-53.11-11.41-62.94c-6.29-9.83-12.2-13.77-14.95-13.77s-.79 3.54 3.15 8.65 7.47 7.87 9 14.16c1.53 6.29 1.58 14.17-.39 13.38-1.97-.79-5.11-16.52-7.87-22.42-2.76-5.9-9.44-13.38-13.37-16.92-3.93-3.54-12.59-14.16-16.53-11.41-3.94 2.75-1.57 6.69.79 8.26 2.36 1.57 11.8 11 16.13 16.92 4.33 5.92 7.08 20.85 4.72 21.24-2.36.39-9.44-21.63-13.37-26.36-3.93-4.73-19.68-17.7-23.22-18.09-3.54-.39-3.93 5.11-.78 7.87 3.15 2.76 13.77 14.55 17.31 21.63 3.54 7.08 5.11 20.07 2 16.92-3.11-3.15-8.26-16.13-12.58-20.46-4.32-4.33-17.31-18.09-20.46-16.52-3.15 1.57-2.36 5.51.39 8.26s13.38 17.7 16.13 25.57c2.75 7.87 5.9 29.9 4.33 26.75-1.57-3.15-6.69-19.27-9.44-26-2.75-6.73-8.26-9.84-9.05-6.69-.79 3.15.79 4.72 2.75 11.8 1.96 7.08 2 26 7.87 36.59 5.87 10.59 28.72 39.34 31.87 47.21 3.15 7.87 10.23 25.18 10.23 25.18"/>
  <path fill="#2E353A" stroke="#2E353A" stroke-linecap="round" stroke-linejoin="round" d="M118.6 396h60c.78-3 1.76-6.36 3-10 4.72-14.14 20-31.82 20-31.82A103.419 103.419 0 0 0 163.84 333c-23-7.08-39.84-5-39.84-5a92.57 92.57 0 0 1 1 39c-3 14.56-5 23.77-6.4 29Zm210.8 0h62.34c-2-5.18-6.32-16.43-10.64-27.68-5.9-15.32-3.54-35.94-5.9-35.94-2.36 0-28.87-1.77-41.83 2.35-12.96 4.12-27.7 15.91-27.7 15.91A130.282 130.282 0 0 1 322.76 376a87.75 87.75 0 0 1 6.64 20v0Z"/>
  <path fill="#EC6C0C" d="M156.08 340.2c-.43-1.7-6.83.86-6.83.86s2.14-8.1-1.27-8.1-3.84 6-3.84 6-6.4-2.55-6.4 1.28S142 344 142 344s-5.12 6.4-1.28 7.67c3.84 1.27 6.39-3.41 6.39-3.41s2.56 4.27 6 2.56c3.44-1.71.85-5.54.85-5.54s2.54-3.37 2.12-5.08Zm-8.53 6.4a1.75 1.75 0 1 1 2.13-1.71 1.996 1.996 0 0 1-.728 1.275 1.996 1.996 0 0 1-1.402.435Zm17.91 41.4c-.43-1.7-6.83.86-6.83.86s2.14-8.1-1.28-8.1-3.83 6-3.83 6-6.4-2.56-6.4 1.27 4.27 3.84 4.27 3.84-5.12 6.4-1.28 7.68c3.84 1.28 6.39-3.42 6.39-3.42s2.56 4.27 6 2.56c3.44-1.71.85-5.54.85-5.54s2.53-3.49 2.11-5.15Zm-8.53 6.4a1.75 1.75 0 1 1 2.13-1.71 1.947 1.947 0 0 1-2.13 1.66v.05Zm-29 0c-.43-1.71-6.82.85-6.82.85s2.13-8.1-1.28-8.1-3.84 6-3.84 6-6.4-2.56-6.4 1.28 4.27 3.84 4.27 3.84-5.12 6.39-1.28 7.67c3.84 1.28 6.39-3.41 6.39-3.41s2.56 4.26 6 2.56c3.44-1.7.86-5.54.86-5.54s2.53-3.5 2.11-5.2l-.01.05Zm-8.53 6.39a1.748 1.748 0 0 1-1.325-1.314 1.756 1.756 0 0 1 .613-1.762 1.746 1.746 0 0 1 2.577.442c.175.28.267.604.265.934a1.95 1.95 0 0 1-2.12 1.65l-.01.05Zm55-39.65h4.69c3.41 0 5.54 3.84 5.54 3.84-7.24 2.08-10.22-3.89-10.22-3.89l-.01.05Zm-4.69 33.26h4.69c3.41 0 5.54 3.84 5.54 3.84-7.24 2.08-10.22-3.89-10.22-3.89l-.01.05Zm-40.92-6.4h4.69c3.41 0 5.54 3.84 5.54 3.84-7.25 2.08-10.23-3.84-10.23-3.84Zm22.67-30.09 2.74 3.81c2 2.78.11 6.74.11 6.74-5.96-4.69-2.85-10.6-2.85-10.6v.05ZM128 370.65l2.14-4.17c1.57-3 5.95-3.18 5.95-3.18-1.47 7.42-8.09 7.35-8.09 7.35Z"/>
  <path fill="#ED5144" d="M356.89 348.3c-.43-1.7-6.83.86-6.83.86s2.14-8.1-1.27-8.1-3.84 6-3.84 6-6.4-2.55-6.4 1.28 4.27 3.84 4.27 3.84-5.12 6.4-1.28 7.68c3.84 1.28 6.39-3.42 6.39-3.42s2.56 4.27 6 2.56c3.44-1.71.85-5.54.85-5.54s2.53-3.46 2.11-5.16Zm-8.53 6.4a1.75 1.75 0 1 1 2.13-1.71 1.947 1.947 0 0 1-2.13 1.71Zm28.56 26.86c-.42-1.71-6.82.85-6.82.85s2.13-8.1-1.28-8.1-3.83 6-3.83 6-6.4-2.56-6.4 1.28 4.26 3.84 4.26 3.84-5.11 6.39-1.27 7.67c3.84 1.28 6.39-3.41 6.39-3.41s2.56 4.26 6 2.56c3.44-1.7.85-5.54.85-5.54s2.53-3.45 2.1-5.15ZM368.4 388a1.748 1.748 0 0 1-1.325-1.314 1.756 1.756 0 0 1 .613-1.762 1.747 1.747 0 0 1 2.842 1.376 1.953 1.953 0 0 1-2.13 1.7Zm-12.79 6.4c-.43-1.71-6.82.85-6.82.85s2.13-8.1-1.28-8.1-3.84 6-3.84 6-6.4-2.56-6.4 1.28 4.27 3.84 4.27 3.84-5.12 6.39-1.28 7.67c3.84 1.28 6.39-3.41 6.39-3.41s2.56 4.26 6 2.56c3.44-1.7.86-5.54.86-5.54s2.49-3.5 2.1-5.2v.05Zm-8.53 6.39a1.748 1.748 0 0 1-1.325-1.314 1.756 1.756 0 0 1 .613-1.762 1.747 1.747 0 0 1 2.842 1.376 1.952 1.952 0 0 1-2.13 1.65v.05Zm28.14-31.55h4.69c3.41 0 5.54 3.84 5.54 3.84-7.25 2.08-10.23-3.89-10.23-3.89v.05Zm-50.31 24.26h4.69c3.41 0 5.54 3.83 5.54 3.83-7.25 2.14-10.23-3.83-10.23-3.83Zm27.36-27.5 2.74 3.81c2 2.78.11 6.74.11 6.74-5.96-4.68-2.85-10.55-2.85-10.55ZM380 389.84l2.73 3.81c2 2.77.11 6.74.11 6.74-5.96-4.65-2.84-10.55-2.84-10.55Zm-51.23-11.09 2.14-4.17c1.57-3 6-3.18 6-3.18-1.48 7.42-8.15 7.35-8.15 7.35h.01Z"/>
</svg>
