<svg xmlns="http://www.w3.org/2000/svg" width="35" height="28" fill="none" viewBox="0 0 35 28">
  <path fill="#C13F98" fill-rule="evenodd" d="M0 5.942c0-.982.82-1.78 1.825-1.78H32.34c1.008 0 1.825.796 1.825 1.78v20.192H0V5.942Z" clip-rule="evenodd"/>
  <path fill="#C13F98" d="M17.082 27.322c1.011 0 1.83-.798 1.83-1.782s-.819-1.781-1.83-1.781c-1.01 0-1.83.797-1.83 1.781 0 .984.82 1.782 1.83 1.782Z"/>
  <path fill="#D8D8D8" fill-rule="evenodd" d="M1.83 2.381S5.643.6 9.456.6s7.626 1.781 7.626 1.781v21.971s-3.813-1.78-7.626-1.78-7.626 1.78-7.626 1.78V2.383Z" clip-rule="evenodd"/>
  <path fill="#B6B6B6" d="M4.27 7.132h10.372V5.944H4.271v1.188Zm0 2.375h5.491V8.32h-5.49v1.187Zm0 2.376h8.542v-1.188H4.27v1.188Z"/>
  <path fill="#E9E9E9" fill-rule="evenodd" d="M17.082 2.381S20.895.6 24.708.6s7.626 1.781 7.626 1.781v21.971s-3.813-1.78-7.626-1.78-7.626 1.78-7.626 1.78V2.383Z" clip-rule="evenodd"/>
  <path fill="#B6B6B6" d="M19.523 7.132h10.981V5.944H19.523v1.188Zm0 2.375h10.981V8.32H19.523v1.187Zm0 2.376h10.981v-1.188H19.523v1.188Zm0 2.375h7.32V13.07h-7.32v1.188Z"/>
</svg>
